<?xml version="1.0" standalone="no"?>
<!DOCTYPE svg PUBLIC "-//W3C//DTD SVG 20010904//EN"
 "http://www.w3.org/TR/2001/REC-SVG-20010904/DTD/svg10.dtd">
<svg version="1.0" xmlns="http://www.w3.org/2000/svg"
 width="802.000000pt" height="802.000000pt" viewBox="0 0 802.000000 802.000000"
 preserveAspectRatio="xMidYMid meet">
<metadata>
Created by potrace 1.14, written by Peter Selinger 2001-2017
</metadata>
<g transform="translate(0.000000,802.000000) scale(0.100000,-0.100000)"
fill="#000000" stroke="none">
<path d="M3848 7685 c-2 -1 -37 -6 -78 -9 -75 -7 -115 -11 -200 -21 -163 -18
-212 -25 -221 -30 -3 -2 -19 -7 -35 -9 -32 -6 -41 -8 -130 -30 -34 -8 -72 -17
-85 -20 -19 -4 -109 -31 -234 -70 -5 -2 -17 -6 -25 -9 -8 -3 -49 -17 -90 -32
-41 -14 -88 -32 -105 -40 -16 -7 -61 -27 -100 -44 -38 -18 -87 -40 -108 -51
-22 -11 -45 -20 -52 -20 -7 0 -15 -4 -17 -8 -1 -4 -36 -23 -75 -42 -40 -18
-73 -37 -73 -42 0 -4 -7 -8 -15 -8 -8 0 -15 -4 -15 -10 0 -5 -4 -10 -9 -10 -7
0 -251 -148 -276 -167 -5 -5 -30 -24 -55 -43 -46 -35 -60 -46 -96 -77 -18 -16
-89 -73 -119 -95 -20 -15 -129 -113 -154 -140 -231 -237 -285 -296 -356 -393
-16 -22 -33 -44 -38 -50 -87 -106 -303 -450 -308 -492 -1 -5 -9 -19 -18 -33
-9 -14 -34 -61 -55 -105 -21 -44 -42 -87 -47 -95 -5 -8 -12 -22 -15 -30 -9
-23 -20 -50 -46 -115 -14 -33 -42 -114 -62 -180 -21 -66 -40 -127 -43 -135 -7
-16 -6 -15 -22 -80 -7 -25 -13 -52 -16 -60 -2 -8 -17 -82 -34 -165 -32 -156
-34 -172 -56 -350 -16 -137 -16 -174 4 -214 22 -42 105 -114 163 -141 29 -13
35 -19 26 -28 -7 -7 -18 -12 -24 -12 -7 0 -19 -6 -26 -13 -7 -7 -33 -25 -58
-41 -72 -45 -93 -86 -93 -176 0 -66 3 -103 17 -235 3 -27 7 -52 22 -145 11
-68 36 -184 45 -210 5 -14 11 -36 13 -50 5 -23 9 -39 35 -132 52 -189 81 -271
150 -421 17 -37 31 -70 31 -73 0 -8 129 -267 157 -316 96 -165 221 -349 307
-454 28 -34 62 -76 76 -94 14 -18 44 -52 66 -76 23 -24 39 -44 37 -44 -14 0
335 -327 406 -380 18 -14 52 -40 74 -58 23 -17 47 -35 52 -40 6 -4 27 -19 47
-35 20 -15 41 -27 46 -27 6 0 12 -4 14 -8 8 -20 320 -207 423 -254 44 -20 112
-51 150 -69 39 -18 72 -34 75 -34 3 -1 28 -12 55 -24 59 -27 365 -132 365
-125 0 3 8 0 18 -5 11 -6 30 -12 43 -15 44 -8 205 -45 220 -50 8 -3 31 -8 53
-11 21 -3 42 -7 46 -10 7 -4 68 -13 145 -20 17 -1 59 -6 95 -10 168 -19 241
-22 450 -20 124 2 234 5 245 8 11 3 49 8 85 12 70 7 123 13 185 21 22 3 47 6
55 6 8 0 42 7 75 15 33 7 71 16 85 19 79 16 163 37 223 55 37 12 73 22 80 23
7 2 19 6 27 9 8 3 44 15 80 27 36 12 72 24 80 27 8 3 22 7 30 9 18 4 72 27
190 82 220 103 262 122 271 122 5 0 9 4 9 9 0 5 8 11 18 15 14 5 137 78 192
115 8 6 56 37 105 70 50 32 100 67 113 77 62 50 221 180 257 209 62 52 311
307 383 393 94 113 322 437 322 459 0 7 3 13 8 13 4 0 16 18 26 40 11 22 23
40 28 40 4 0 7 3 6 8 -1 4 42 95 95 202 53 107 97 202 97 212 0 9 4 18 8 20 4
2 25 55 46 118 21 63 42 124 47 135 5 11 11 31 13 45 3 14 12 46 20 73 8 26
13 47 10 47 -3 0 0 8 5 18 6 11 12 30 15 43 2 13 16 80 31 149 15 69 29 141
31 160 2 19 6 50 9 68 13 82 15 101 21 167 3 39 7 88 8 110 2 41 -11 85 -26
85 -4 0 -8 6 -8 13 0 15 -45 57 -60 57 -6 0 -10 4 -10 8 0 9 -7 13 -79 51
l-34 18 61 36 c126 74 163 129 157 229 -5 70 -23 243 -29 278 -3 14 -7 42 -10
63 -8 53 -35 183 -48 232 -6 22 -11 45 -12 50 -10 45 -55 200 -84 290 -14 44
-27 82 -27 85 -3 9 -17 45 -28 70 -6 14 -11 27 -12 30 -3 10 -23 56 -48 110
-39 86 -76 170 -77 175 -1 12 -88 168 -142 254 -32 51 -58 95 -58 98 0 5 -61
95 -69 103 -3 3 -10 12 -16 21 -34 54 -64 96 -79 108 -9 7 -16 17 -16 22 0 5
-12 22 -27 38 -16 16 -38 42 -51 58 -105 131 -235 269 -368 390 -17 15 -49 44
-70 64 -53 48 -275 217 -349 265 -33 21 -66 45 -73 51 -7 7 -24 16 -38 19 -13
3 -24 10 -24 15 0 5 -5 9 -12 9 -6 0 -26 11 -44 25 -18 14 -37 25 -43 25 -5 0
-16 6 -23 14 -13 12 -121 66 -243 121 -22 10 -78 36 -125 57 -47 22 -94 43
-105 48 -19 9 -259 90 -280 95 -5 1 -17 5 -25 8 -8 3 -28 8 -45 12 -16 3 -46
10 -65 15 -30 7 -184 42 -245 56 -59 12 -137 24 -190 29 -33 2 -78 7 -100 10
-22 3 -60 8 -85 11 -52 5 -487 14 -492 9z"/>
</g>
</svg>
